<svg width="30" height="30" viewBox="0 0 30 30" fill="none" xmlns="http://www.w3.org/2000/svg">
<circle cx="15" cy="15" r="15" fill="white"/>
<path d="M9.02077 11.7273V16.2159C9.02077 16.8942 8.53427 17.3807 7.856 17.3807C7.17773 17.3807 6.69123 16.8942 6.69123 16.2159V11.7273H4.7168V16.3864C4.7168 18.0483 5.9739 19.0852 7.856 19.0852C9.7239 19.0852 10.9952 18.0483 10.9952 16.3864V11.7273H9.02077ZM15.854 14H17.7433C17.7362 12.5724 16.6353 11.6278 14.8739 11.6278C13.1445 11.6278 11.9229 12.5582 11.9336 13.9432C11.93 15.0795 12.7184 15.7116 14.0075 15.9886L14.7319 16.1449C15.5415 16.3224 15.8185 16.5249 15.8256 16.8551C15.8185 17.2138 15.4918 17.4659 14.8597 17.4659C14.1033 17.4659 13.6559 17.1108 13.6239 16.4432H11.7489C11.756 18.2685 12.9918 19.0852 14.8881 19.0852C16.7312 19.0852 17.8356 18.2898 17.8427 16.8551C17.8356 15.7472 17.1751 14.9695 15.57 14.625L14.9734 14.4972C14.2844 14.3516 13.9755 14.1491 13.9933 13.8011C13.9968 13.4815 14.2631 13.2472 14.8739 13.2472C15.5131 13.2472 15.815 13.5277 15.854 14ZM20.7102 11.7273H18.4943L20.6534 15.3636L18.4233 19H20.6676L21.9034 16.8409H21.9602L23.196 19H25.4545L23.196 15.3636L25.3693 11.7273H23.1676L21.9602 13.8438H21.9034L20.7102 11.7273Z" fill="black"/>
</svg>
